<?xml version="1.0" encoding="UTF-8" standalone="no"?>
<!DOCTYPE svg PUBLIC "-//W3C//DTD SVG 1.1//EN"
 "http://www.w3.org/Graphics/SVG/1.1/DTD/svg11.dtd">
<!-- Generated by graphviz version 2.26.0 (20091210.2329)
 -->
<!-- Title: G Pages: 1 -->
<svg width="342pt" height="600pt"
 viewBox="0.00 0.00 342.00 600.00" xmlns="http://www.w3.org/2000/svg" xmlns:xlink="http://www.w3.org/1999/xlink">
<g id="graph1" class="graph" transform="scale(1 1) rotate(0) translate(4 596)">
<title>G</title>
<polygon fill="white" stroke="white" points="-4,5 -4,-596 339,-596 339,5 -4,5"/>
<g id="graph2" class="cluster"><title>cluster_default</title>
<polyline fill="none" stroke="none" points="20,-46 314,-46 "/>
<path fill="none" stroke="none" d="M314,-46C320,-46 326,-52 326,-58"/>
<polyline fill="none" stroke="none" points="326,-58 326,-572 "/>
<path fill="none" stroke="none" d="M326,-572C326,-578 320,-584 314,-584"/>
<polyline fill="none" stroke="none" points="314,-584 20,-584 "/>
<path fill="none" stroke="none" d="M20,-584C14,-584 8,-578 8,-572"/>
<polyline fill="none" stroke="none" points="8,-572 8,-58 "/>
<path fill="none" stroke="none" d="M8,-58C8,-52 14,-46 20,-46"/>
</g>
<!-- \\Abiquo -->
<g id="node2" class="node"><title>\\Abiquo</title>
<a xlink:href="php-classes.connectors.Abiquo.class.html" xlink:title="Abiquo" target="_parent">
<polygon fill="none" stroke="black" points="277,-576 221,-576 221,-540 277,-540 277,-576"/>
<text text-anchor="middle" x="249" y="-555.1" font-family="Courier,monospace" font-size="11.00">Abiquo</text>
</a>
</g>
<!-- \\Connector -->
<g id="node5" class="node"><title>\\Connector</title>
<a xlink:href="php-classes.Connector.interface.html" xlink:title="Connector" target="_parent">
<polygon fill="none" stroke="black" points="93,-549 17,-549 17,-513 93,-513 93,-549"/>
<text text-anchor="middle" x="55" y="-528.1" font-family="Courier,monospace" font-size="11.00">Connector</text>
</a>
</g>
<!-- \\Abiquo&#45;&gt;\\Connector -->
<g id="edge5" class="edge"><title>\\Abiquo&#45;&gt;\\Connector</title>
<path fill="none" stroke="black" stroke-dasharray="1,5" d="M220.375,-554.016C189.738,-549.752 140.586,-542.912 103.817,-537.794"/>
<polygon fill="none" stroke="black" points="104.187,-534.312 93.7998,-536.4 103.222,-541.245 104.187,-534.312"/>
</g>
<!-- \\Vmc -->
<g id="node3" class="node"><title>\\Vmc</title>
<a xlink:href="php-classes.connectors.Vmc.class.html" xlink:title="Vmc" target="_parent">
<polygon fill="none" stroke="black" points="276,-522 222,-522 222,-486 276,-486 276,-522"/>
<text text-anchor="middle" x="249" y="-501.1" font-family="Courier,monospace" font-size="11.00">Vmc</text>
</a>
</g>
<!-- \\Vmc&#45;&gt;\\Connector -->
<g id="edge7" class="edge"><title>\\Vmc&#45;&gt;\\Connector</title>
<path fill="none" stroke="black" stroke-dasharray="1,5" d="M221.616,-507.811C191.066,-512.063 141.043,-519.025 103.767,-524.213"/>
<polygon fill="none" stroke="black" points="103.04,-520.78 93.6182,-525.625 104.005,-527.713 103.04,-520.78"/>
</g>
<!-- \\ConnectorException -->
<g id="node4" class="node"><title>\\ConnectorException</title>
<a xlink:href="php-classes.ConnectorException.class.html" xlink:title="ConnectorException" target="_parent">
<polygon fill="none" stroke="black" points="318,-468 180,-468 180,-432 318,-432 318,-468"/>
<text text-anchor="middle" x="249" y="-447.1" font-family="Courier,monospace" font-size="11.00">ConnectorException</text>
</a>
</g>
<!-- \\Exception -->
<g id="node14" class="node"><title>\\Exception</title>
<ellipse fill="none" stroke="black" cx="55" cy="-19" rx="53.033" ry="19.0919"/>
<text text-anchor="middle" x="55" y="-15.9" font-family="Times Roman,serif" font-size="14.00" fill="gray">\Exception</text>
</g>
<!-- \\ConnectorException&#45;&gt;\\Exception -->
<g id="edge3" class="edge"><title>\\ConnectorException&#45;&gt;\\Exception</title>
<path fill="none" stroke="black" d="M189.626,-431.898C186.059,-429.315 182.792,-426.367 180,-423 70.001,-290.343 215.563,-176.64 108,-42 106.732,-40.4131 105.333,-38.9333 103.832,-37.5536"/>
<polygon fill="none" stroke="black" points="105.724,-34.5991 95.6054,-31.4572 101.556,-40.2232 105.724,-34.5991"/>
</g>
<!-- \\Alerts -->
<g id="node6" class="node"><title>\\Alerts</title>
<a xlink:href="php-classes.Alerts.class.html" xlink:title="Alerts" target="_parent">
<polygon fill="none" stroke="black" points="277,-414 221,-414 221,-378 277,-378 277,-414"/>
<text text-anchor="middle" x="249" y="-393.1" font-family="Courier,monospace" font-size="11.00">Alerts</text>
</a>
</g>
<!-- \\Log -->
<g id="node7" class="node"><title>\\Log</title>
<a xlink:href="php-classes.Log.class.html" xlink:title="Log" target="_parent">
<polygon fill="none" stroke="black" points="276,-360 222,-360 222,-324 276,-324 276,-360"/>
<text text-anchor="middle" x="249" y="-339.1" font-family="Courier,monospace" font-size="11.00">Log</text>
</a>
</g>
<!-- \\Trigger -->
<g id="node8" class="node"><title>\\Trigger</title>
<a xlink:href="php-classes.Trigger.class.html" xlink:title="Trigger" target="_parent">
<polygon fill="none" stroke="black" points="281,-306 217,-306 217,-270 281,-270 281,-306"/>
<text text-anchor="middle" x="249" y="-285.1" font-family="Courier,monospace" font-size="11.00">Trigger</text>
</a>
</g>
<!-- \\Charts -->
<g id="node9" class="node"><title>\\Charts</title>
<a xlink:href="php-classes.Charts.class.html" xlink:title="Charts" target="_parent">
<polygon fill="none" stroke="black" points="277,-252 221,-252 221,-216 277,-216 277,-252"/>
<text text-anchor="middle" x="249" y="-231.1" font-family="Courier,monospace" font-size="11.00">Charts</text>
</a>
</g>
<!-- \\DB -->
<g id="node10" class="node"><title>\\DB</title>
<a xlink:href="php-classes.DB.class.html" xlink:title="DB" target="_parent">
<polygon fill="none" stroke="black" points="276,-198 222,-198 222,-162 276,-162 276,-198"/>
<text text-anchor="middle" x="249" y="-177.1" font-family="Courier,monospace" font-size="11.00">DB</text>
</a>
</g>
<!-- \\Cluster -->
<g id="node11" class="node"><title>\\Cluster</title>
<a xlink:href="php-classes.Cluster.class.html" xlink:title="Cluster" target="_parent">
<polygon fill="none" stroke="black" points="281,-144 217,-144 217,-108 281,-108 281,-144"/>
<text text-anchor="middle" x="249" y="-123.1" font-family="Courier,monospace" font-size="11.00">Cluster</text>
</a>
</g>
<!-- \\Auth -->
<g id="node12" class="node"><title>\\Auth</title>
<a xlink:href="php-classes.Auth.class.html" xlink:title="Auth" target="_parent">
<polygon fill="none" stroke="black" points="276,-90 222,-90 222,-54 276,-54 276,-90"/>
<text text-anchor="middle" x="249" y="-69.1" font-family="Courier,monospace" font-size="11.00">Auth</text>
</a>
</g>
</g>
</svg>
