<?xml version="1.0" encoding="UTF-8" standalone="no"?>
<!DOCTYPE svg PUBLIC "-//W3C//DTD SVG 1.1//EN"
 "http://www.w3.org/Graphics/SVG/1.1/DTD/svg11.dtd">
<!-- Generated by graphviz version 2.26.0 (20091210.2329)
 -->
<!-- Title: G Pages: 1 -->
<svg width="342pt" height="492pt"
 viewBox="0.00 0.00 342.00 492.00" xmlns="http://www.w3.org/2000/svg" xmlns:xlink="http://www.w3.org/1999/xlink">
<g id="graph1" class="graph" transform="scale(1 1) rotate(0) translate(4 488)">
<title>G</title>
<polygon fill="white" stroke="white" points="-4,5 -4,-488 339,-488 339,5 -4,5"/>
<g id="graph2" class="cluster"><title>cluster_default</title>
<polyline fill="none" stroke="none" points="20,-46 314,-46 "/>
<path fill="none" stroke="none" d="M314,-46C320,-46 326,-52 326,-58"/>
<polyline fill="none" stroke="none" points="326,-58 326,-464 "/>
<path fill="none" stroke="none" d="M326,-464C326,-470 320,-476 314,-476"/>
<polyline fill="none" stroke="none" points="314,-476 20,-476 "/>
<path fill="none" stroke="none" d="M20,-476C14,-476 8,-470 8,-464"/>
<polyline fill="none" stroke="none" points="8,-464 8,-58 "/>
<path fill="none" stroke="none" d="M8,-58C8,-52 14,-46 20,-46"/>
</g>
<!-- \\Abiquo -->
<g id="node2" class="node"><title>\\Abiquo</title>
<a xlink:href="connectors.Abiquo.class.html" xlink:title="Abiquo" target="_parent">
<polygon fill="none" stroke="black" points="277,-468 221,-468 221,-432 277,-432 277,-468"/>
<text text-anchor="middle" x="249" y="-447.1" font-family="Courier,monospace" font-size="11.00">Abiquo</text>
</a>
</g>
<!-- \\Connector -->
<g id="node4" class="node"><title>\\Connector</title>
<a xlink:href="Connector.interface.html" xlink:title="Connector" target="_parent">
<polygon fill="none" stroke="black" points="93,-468 17,-468 17,-432 93,-432 93,-468"/>
<text text-anchor="middle" x="55" y="-447.1" font-family="Courier,monospace" font-size="11.00">Connector</text>
</a>
</g>
<!-- \\Abiquo&#45;&gt;\\Connector -->
<g id="edge5" class="edge"><title>\\Abiquo&#45;&gt;\\Connector</title>
<path fill="none" stroke="black" stroke-dasharray="1,5" d="M220.375,-450C189.738,-450 140.586,-450 103.817,-450"/>
<polygon fill="none" stroke="black" points="103.8,-446.5 93.7998,-450 103.8,-453.5 103.8,-446.5"/>
</g>
<!-- \\ConnectorException -->
<g id="node3" class="node"><title>\\ConnectorException</title>
<a xlink:href="ConnectorException.class.html" xlink:title="ConnectorException" target="_parent">
<polygon fill="none" stroke="black" points="318,-414 180,-414 180,-378 318,-378 318,-414"/>
<text text-anchor="middle" x="249" y="-393.1" font-family="Courier,monospace" font-size="11.00">ConnectorException</text>
</a>
</g>
<!-- \\Exception -->
<g id="node12" class="node"><title>\\Exception</title>
<ellipse fill="none" stroke="black" cx="55" cy="-19" rx="53.033" ry="19.0919"/>
<text text-anchor="middle" x="55" y="-15.9" font-family="Times Roman,serif" font-size="14.00" fill="gray">\Exception</text>
</g>
<!-- \\ConnectorException&#45;&gt;\\Exception -->
<g id="edge3" class="edge"><title>\\ConnectorException&#45;&gt;\\Exception</title>
<path fill="none" stroke="black" d="M189.739,-377.803C186.146,-375.242 182.842,-372.325 180,-369 83.3064,-255.88 202.616,-156.863 108,-42 106.685,-40.4032 105.237,-38.9144 103.688,-37.5266"/>
<polygon fill="none" stroke="black" points="105.377,-34.4284 95.2252,-31.3962 101.27,-40.0973 105.377,-34.4284"/>
</g>
<!-- \\Alerts -->
<g id="node5" class="node"><title>\\Alerts</title>
<a xlink:href="Alerts.class.html" xlink:title="Alerts" target="_parent">
<polygon fill="none" stroke="black" points="277,-360 221,-360 221,-324 277,-324 277,-360"/>
<text text-anchor="middle" x="249" y="-339.1" font-family="Courier,monospace" font-size="11.00">Alerts</text>
</a>
</g>
<!-- \\Log -->
<g id="node6" class="node"><title>\\Log</title>
<a xlink:href="Log.class.html" xlink:title="Log" target="_parent">
<polygon fill="none" stroke="black" points="276,-306 222,-306 222,-270 276,-270 276,-306"/>
<text text-anchor="middle" x="249" y="-285.1" font-family="Courier,monospace" font-size="11.00">Log</text>
</a>
</g>
<!-- \\Trigger -->
<g id="node7" class="node"><title>\\Trigger</title>
<a xlink:href="Trigger.class.html" xlink:title="Trigger" target="_parent">
<polygon fill="none" stroke="black" points="281,-252 217,-252 217,-216 281,-216 281,-252"/>
<text text-anchor="middle" x="249" y="-231.1" font-family="Courier,monospace" font-size="11.00">Trigger</text>
</a>
</g>
<!-- \\DB -->
<g id="node8" class="node"><title>\\DB</title>
<a xlink:href="DB.class.html" xlink:title="DB" target="_parent">
<polygon fill="none" stroke="black" points="276,-198 222,-198 222,-162 276,-162 276,-198"/>
<text text-anchor="middle" x="249" y="-177.1" font-family="Courier,monospace" font-size="11.00">DB</text>
</a>
</g>
<!-- \\Cluster -->
<g id="node9" class="node"><title>\\Cluster</title>
<a xlink:href="Cluster.class.html" xlink:title="Cluster" target="_parent">
<polygon fill="none" stroke="black" points="281,-144 217,-144 217,-108 281,-108 281,-144"/>
<text text-anchor="middle" x="249" y="-123.1" font-family="Courier,monospace" font-size="11.00">Cluster</text>
</a>
</g>
<!-- \\Auth -->
<g id="node10" class="node"><title>\\Auth</title>
<a xlink:href="Auth.class.html" xlink:title="Auth" target="_parent">
<polygon fill="none" stroke="black" points="276,-90 222,-90 222,-54 276,-54 276,-90"/>
<text text-anchor="middle" x="249" y="-69.1" font-family="Courier,monospace" font-size="11.00">Auth</text>
</a>
</g>
</g>
</svg>
